<?xml version="1.0" encoding="utf-8"?>
<!-- Generator: Adobe Illustrator 19.2.1, SVG Export Plug-In . SVG Version: 6.00 Build 0)  -->
<svg version="1.1" id="Layer_1" xmlns="http://www.w3.org/2000/svg" xmlns:xlink="http://www.w3.org/1999/xlink" x="0px" y="0px"
	 viewBox="0 0 25.2 19.3" style="enable-background:new 0 0 25.2 19.3;" xml:space="preserve">
<style type="text/css">
	.st0{fill:#58595B;}
</style>
<image style="display:none;overflow:visible;enable-background:new    ;" width="50" height="50" xlink:href="7FABA9B94E8D4134.png"  transform="matrix(1 0 0 1 -12.5 -14.4583)">
</image>
<path class="st0" d="M23.3,11.5H2c-1,0-1.9-0.8-1.9-1.9l0,0c0-1,0.8-1.9,1.9-1.9h21.3c1,0,1.9,0.8,1.9,1.9l0,0
	C25.2,10.7,24.3,11.5,23.3,11.5z"/>
<path class="st0" d="M23.3,3.8H2C1,3.8,0.1,3,0.1,1.9l0,0C0.2,0.8,1,0,2,0h21.3c1,0,1.9,0.8,1.9,1.9l0,0C25.2,2.9,24.3,3.8,23.3,3.8
	z"/>
<path class="st0" d="M23.1,19.3H1.9c-1,0-1.9-0.8-1.9-1.9l0,0c0-1,0.8-1.9,1.9-1.9h21.3c1,0,1.9,0.8,1.9,1.9l0,0
	C25,18.5,24.2,19.3,23.1,19.3z"/>
</svg>
